<?xml version="1.0" encoding="utf-8"?>
<!-- Generator: Adobe Illustrator 17.0.0, SVG Export Plug-In . SVG Version: 6.00 Build 0)  -->
<!DOCTYPE svg PUBLIC "-//W3C//DTD SVG 1.1//EN" "http://www.w3.org/Graphics/SVG/1.1/DTD/svg11.dtd">
<svg version="1.1" id="Слой_1" xmlns="http://www.w3.org/2000/svg" xmlns:xlink="http://www.w3.org/1999/xlink" x="0px" y="0px"
	 width="15px" height="42px" viewBox="4 12 15 42" enable-background="new 4 12 15 42" xml:space="preserve">
<g>
	<path fill="#FF9813" d="M17.639,45.066l-3.727-0.353c-0.235-0.021-0.438-0.171-0.534-0.395l-1.335-3.236
		c-0.213-0.534-0.972-0.534-1.186,0l-1.324,3.237c-0.086,0.224-0.299,0.374-0.534,0.395l-3.728,0.353
		c-0.556,0.053-0.78,0.747-0.363,1.122l2.809,2.467c0.182,0.16,0.256,0.395,0.203,0.63l-0.843,3.46
		c-0.128,0.545,0.459,0.993,0.95,0.705l3.108-1.826c0.203-0.117,0.449-0.117,0.652,0l3.108,1.826c0.491,0.288,1.079-0.15,0.95-0.705
		l-0.833-3.462c-0.053-0.235,0.021-0.47,0.203-0.63l2.809-2.467C18.429,45.813,18.194,45.119,17.639,45.066z"/>
</g>
<g>
	<path fill="#FFCC1C" d="M17.639,30.955l-3.727-0.353c-0.235-0.021-0.438-0.171-0.534-0.395l-1.335-3.236
		c-0.213-0.534-0.972-0.534-1.186,0l-1.324,3.236c-0.086,0.224-0.299,0.374-0.534,0.395l-3.728,0.353
		c-0.556,0.053-0.78,0.747-0.363,1.122l2.809,2.467c0.182,0.16,0.256,0.395,0.203,0.63l-0.843,3.46
		c-0.128,0.545,0.459,0.993,0.95,0.705l3.108-1.826c0.203-0.117,0.449-0.117,0.652,0l3.108,1.826c0.491,0.288,1.079-0.15,0.95-0.705
		l-0.833-3.46c-0.053-0.235,0.021-0.47,0.203-0.63l2.809-2.467C18.429,31.702,18.194,31.009,17.639,30.955z"/>
</g>
<g>
	<path fill="#DCDCDC" d="M17.678,16.794l-3.727-0.353c-0.235-0.021-0.438-0.171-0.534-0.395l-1.335-3.236
		c-0.213-0.534-0.972-0.534-1.186,0l-1.324,3.237c-0.085,0.224-0.299,0.373-0.534,0.395l-3.728,0.353
		c-0.556,0.053-0.78,0.747-0.363,1.122l2.809,2.467c0.182,0.16,0.256,0.395,0.203,0.63l-0.843,3.46
		c-0.128,0.545,0.459,0.993,0.95,0.705l3.108-1.826c0.203-0.117,0.449-0.117,0.652,0l3.108,1.826c0.491,0.288,1.079-0.15,0.95-0.705
		l-0.833-3.46c-0.053-0.235,0.021-0.47,0.203-0.63l2.809-2.467C18.469,17.541,18.234,16.847,17.678,16.794z"/>
</g>
<g id="Слой_2">
</g>
</svg>
