<svg width="19" height="16" viewBox="0 0 19 16" fill="none" xmlns="http://www.w3.org/2000/svg">
<path d="M17.6012 3.15064C17.3352 2.53861 16.9516 1.984 16.4721 1.51785C15.9921 1.05031 15.4262 0.67876 14.8052 0.423409C14.1612 0.157575 13.4705 0.0215055 12.7732 0.0231004C11.7949 0.0231004 10.8405 0.289316 10.011 0.792166C9.81256 0.912456 9.62405 1.04458 9.44546 1.18853C9.26687 1.04458 9.07835 0.912456 8.87992 0.792166C8.05046 0.289316 7.09598 0.0231004 6.11769 0.0231004C5.41325 0.0231004 4.73063 0.157194 4.08572 0.423409C3.46263 0.679765 2.90106 1.04852 2.41886 1.51785C1.93864 1.98347 1.55503 2.53822 1.28976 3.15064C1.01394 3.78758 0.873047 4.46396 0.873047 5.16007C0.873047 5.81673 1.00798 6.501 1.27587 7.19711C1.5001 7.77884 1.82157 8.38226 2.23233 8.99159C2.8832 9.95588 3.77814 10.9616 4.88938 11.9811C6.73086 13.6711 8.55448 14.8385 8.63187 14.8858L9.10216 15.1855C9.31052 15.3177 9.57841 15.3177 9.78677 15.1855L10.2571 14.8858C10.3344 14.8365 12.1561 13.6711 13.9996 11.9811C15.1108 10.9616 16.0057 9.95588 16.6566 8.99159C17.0674 8.38226 17.3908 7.77884 17.6131 7.19711C17.8809 6.501 18.0159 5.81673 18.0159 5.16007C18.0179 4.46396 17.877 3.78758 17.6012 3.15064Z" fill="#FF8585"/>
</svg>
