<?xml version="1.0" encoding="utf-8"?>
<!-- Generator: Adobe Illustrator 17.0.0, SVG Export Plug-In . SVG Version: 6.00 Build 0)  -->
<!DOCTYPE svg PUBLIC "-//W3C//DTD SVG 1.1//EN" "http://www.w3.org/Graphics/SVG/1.1/DTD/svg11.dtd">
<svg version="1.1" id="Слой_1" xmlns="http://www.w3.org/2000/svg" xmlns:xlink="http://www.w3.org/1999/xlink" x="0px" y="0px"
	 width="23px" height="66px" viewBox="0 0 23 66" enable-background="new 0 0 23 66" xml:space="preserve">
<g>
	<path fill="#FF9813" d="M21.031,51.78l-5.749-0.544c-0.362-0.033-0.676-0.264-0.824-0.61l-2.059-4.992
		c-0.329-0.824-1.499-0.824-1.829,0l-2.043,4.993c-0.132,0.346-0.461,0.577-0.824,0.61l-5.75,0.544
		c-0.857,0.082-1.203,1.153-0.56,1.73l4.333,3.806c0.28,0.247,0.395,0.61,0.313,0.972l-1.301,5.338
		c-0.198,0.84,0.708,1.532,1.466,1.087l4.794-2.817c0.313-0.181,0.692-0.181,1.005,0l4.794,2.817
		c0.758,0.445,1.664-0.231,1.466-1.087l-1.285-5.34c-0.082-0.362,0.033-0.725,0.313-0.972l4.333-3.806
		C22.25,52.933,21.887,51.862,21.031,51.78z"/>
</g>
<g>
	<path fill="#FFCC1C" d="M21.031,29.821l-5.749-0.544c-0.362-0.033-0.676-0.264-0.824-0.61l-2.059-4.992
		c-0.329-0.824-1.499-0.824-1.829,0l-2.043,4.992c-0.132,0.346-0.461,0.577-0.824,0.61l-5.75,0.544
		c-0.857,0.082-1.203,1.153-0.56,1.73l4.333,3.806c0.28,0.247,0.395,0.61,0.313,0.972l-1.301,5.338
		c-0.198,0.84,0.708,1.532,1.466,1.087l4.794-2.817c0.313-0.181,0.692-0.181,1.005,0l4.794,2.817
		c0.758,0.445,1.664-0.231,1.466-1.087l-1.285-5.338c-0.082-0.362,0.033-0.725,0.313-0.972l4.333-3.806
		C22.25,30.974,21.887,29.904,21.031,29.821z"/>
</g>
<g>
	<path fill="#DCDCDC" d="M21.091,7.74l-5.749-0.544c-0.362-0.033-0.676-0.264-0.824-0.61l-2.059-4.992
		c-0.329-0.824-1.499-0.824-1.829,0L8.587,6.587C8.456,6.932,8.126,7.163,7.764,7.196L2.014,7.74
		c-0.857,0.082-1.203,1.153-0.56,1.73l4.333,3.806c0.28,0.247,0.395,0.61,0.313,0.972l-1.301,5.338
		c-0.198,0.84,0.708,1.532,1.466,1.087l4.794-2.817c0.313-0.181,0.692-0.181,1.005,0l4.794,2.817
		c0.758,0.445,1.664-0.231,1.466-1.087l-1.285-5.338c-0.082-0.362,0.033-0.725,0.313-0.972l4.333-3.806
		C22.311,8.893,21.948,7.822,21.091,7.74z"/>
</g>
<g id="Слой_2">
</g>
</svg>
